<mxfile host="app.diagrams.net" modified="2024-03-18T10:06:59.099Z" agent="Mozilla/5.0 (Windows NT 10.0; Win64; x64) AppleWebKit/537.36 (KHTML, like Gecko) Chrome/122.0.0.0 Safari/537.36" etag="mP9J5Kvtoyf4A-7O7Xdu" version="24.0.7" type="device">
  <diagram name="Seite-1" id="pG1i7imrexu9rzgJs3JK">
    <mxGraphModel dx="1434" dy="746" grid="1" gridSize="10" guides="1" tooltips="1" connect="1" arrows="1" fold="1" page="1" pageScale="1" pageWidth="827" pageHeight="1169" math="0" shadow="0">
      <root>
        <mxCell id="0" />
        <mxCell id="1" parent="0" />
        <mxCell id="DaeVsZV7c522DMW-jx14-17" value="" style="rounded=0;whiteSpace=wrap;html=1;" vertex="1" parent="1">
          <mxGeometry x="120" y="60" width="570" height="870" as="geometry" />
        </mxCell>
        <mxCell id="DaeVsZV7c522DMW-jx14-1" value="Kunde" style="shape=umlActor;verticalLabelPosition=bottom;verticalAlign=top;html=1;outlineConnect=0;" vertex="1" parent="1">
          <mxGeometry x="30" y="370" width="30" height="60" as="geometry" />
        </mxCell>
        <mxCell id="DaeVsZV7c522DMW-jx14-2" value="Kino" style="shape=umlActor;verticalLabelPosition=bottom;verticalAlign=top;html=1;outlineConnect=0;" vertex="1" parent="1">
          <mxGeometry x="750" y="250" width="30" height="60" as="geometry" />
        </mxCell>
        <mxCell id="DaeVsZV7c522DMW-jx14-3" value="Popkornmaschine" style="shape=umlActor;verticalLabelPosition=bottom;verticalAlign=top;html=1;outlineConnect=0;" vertex="1" parent="1">
          <mxGeometry x="750" y="765" width="30" height="60" as="geometry" />
        </mxCell>
        <mxCell id="DaeVsZV7c522DMW-jx14-6" value="Ticket kaufen" style="ellipse;whiteSpace=wrap;html=1;" vertex="1" parent="1">
          <mxGeometry x="160" y="320" width="120" height="80" as="geometry" />
        </mxCell>
        <mxCell id="DaeVsZV7c522DMW-jx14-7" value="Film aussuchen" style="ellipse;whiteSpace=wrap;html=1;" vertex="1" parent="1">
          <mxGeometry x="160" y="190" width="120" height="80" as="geometry" />
        </mxCell>
        <mxCell id="DaeVsZV7c522DMW-jx14-8" value="Toilettengang" style="ellipse;whiteSpace=wrap;html=1;" vertex="1" parent="1">
          <mxGeometry x="160" y="440" width="120" height="80" as="geometry" />
        </mxCell>
        <mxCell id="DaeVsZV7c522DMW-jx14-9" value="Kinosaal&amp;nbsp;&lt;br&gt;betreten" style="ellipse;whiteSpace=wrap;html=1;" vertex="1" parent="1">
          <mxGeometry x="160" y="550" width="120" height="80" as="geometry" />
        </mxCell>
        <mxCell id="DaeVsZV7c522DMW-jx14-10" value="Kinoprogramm&lt;br&gt;pflegen" style="ellipse;whiteSpace=wrap;html=1;" vertex="1" parent="1">
          <mxGeometry x="500" y="190" width="120" height="80" as="geometry" />
        </mxCell>
        <mxCell id="DaeVsZV7c522DMW-jx14-11" value="Kundenstamm pflegen" style="ellipse;whiteSpace=wrap;html=1;" vertex="1" parent="1">
          <mxGeometry x="500" y="80" width="120" height="80" as="geometry" />
        </mxCell>
        <mxCell id="DaeVsZV7c522DMW-jx14-12" value="Newsverteilung&lt;br&gt;managen" style="ellipse;whiteSpace=wrap;html=1;" vertex="1" parent="1">
          <mxGeometry x="500" y="320" width="120" height="80" as="geometry" />
        </mxCell>
        <mxCell id="DaeVsZV7c522DMW-jx14-13" value="Bestandskontrolle&lt;br&gt;Essen&lt;br&gt;Trinken&lt;br&gt;Verpackungen" style="ellipse;whiteSpace=wrap;html=1;" vertex="1" parent="1">
          <mxGeometry x="500" y="702.5" width="120" height="80" as="geometry" />
        </mxCell>
        <mxCell id="DaeVsZV7c522DMW-jx14-14" value="Zubereitung&amp;nbsp;&lt;br&gt;Essen&lt;br&gt;Trinken" style="ellipse;whiteSpace=wrap;html=1;" vertex="1" parent="1">
          <mxGeometry x="500" y="807.5" width="120" height="80" as="geometry" />
        </mxCell>
        <mxCell id="DaeVsZV7c522DMW-jx14-15" value="Essen/Trinken&lt;br&gt;kaufen" style="ellipse;whiteSpace=wrap;html=1;" vertex="1" parent="1">
          <mxGeometry x="160" y="675" width="120" height="80" as="geometry" />
        </mxCell>
        <mxCell id="DaeVsZV7c522DMW-jx14-16" value="Abrechnung&lt;br&gt;an Kunden" style="ellipse;whiteSpace=wrap;html=1;" vertex="1" parent="1">
          <mxGeometry x="500" y="440" width="120" height="80" as="geometry" />
        </mxCell>
        <mxCell id="DaeVsZV7c522DMW-jx14-18" value="Kinobesuch" style="text;html=1;align=center;verticalAlign=middle;whiteSpace=wrap;rounded=0;" vertex="1" parent="1">
          <mxGeometry x="375" y="10" width="60" height="30" as="geometry" />
        </mxCell>
        <mxCell id="DaeVsZV7c522DMW-jx14-19" value="Benutzerverwaltung&lt;br&gt;incl.&lt;br&gt;Log In" style="ellipse;whiteSpace=wrap;html=1;" vertex="1" parent="1">
          <mxGeometry x="160" y="80" width="120" height="80" as="geometry" />
        </mxCell>
        <mxCell id="DaeVsZV7c522DMW-jx14-20" value="&amp;lt;&amp;lt;include&amp;gt;&amp;gt;" style="html=1;verticalAlign=bottom;labelBackgroundColor=none;endArrow=open;endFill=0;dashed=1;rounded=0;exitX=0.983;exitY=0.613;exitDx=0;exitDy=0;exitPerimeter=0;entryX=0;entryY=0.5;entryDx=0;entryDy=0;" edge="1" parent="1" source="DaeVsZV7c522DMW-jx14-15" target="DaeVsZV7c522DMW-jx14-13">
          <mxGeometry x="0.5434" y="8" width="160" relative="1" as="geometry">
            <mxPoint x="330" y="660" as="sourcePoint" />
            <mxPoint x="490" y="660" as="targetPoint" />
            <mxPoint as="offset" />
          </mxGeometry>
        </mxCell>
        <mxCell id="DaeVsZV7c522DMW-jx14-21" value="&amp;lt;&amp;lt;include&amp;gt;&amp;gt;" style="html=1;verticalAlign=bottom;labelBackgroundColor=none;endArrow=open;endFill=0;dashed=1;rounded=0;exitX=0.975;exitY=0.625;exitDx=0;exitDy=0;exitPerimeter=0;entryX=0;entryY=0.5;entryDx=0;entryDy=0;" edge="1" parent="1" source="DaeVsZV7c522DMW-jx14-15" target="DaeVsZV7c522DMW-jx14-14">
          <mxGeometry x="0.4069" y="13" width="160" relative="1" as="geometry">
            <mxPoint x="330" y="660" as="sourcePoint" />
            <mxPoint x="490" y="660" as="targetPoint" />
            <mxPoint as="offset" />
          </mxGeometry>
        </mxCell>
        <mxCell id="DaeVsZV7c522DMW-jx14-22" value="&amp;lt;&amp;lt;include&amp;gt;&amp;gt;" style="html=1;verticalAlign=bottom;labelBackgroundColor=none;endArrow=open;endFill=0;dashed=1;rounded=0;exitX=1;exitY=0.5;exitDx=0;exitDy=0;entryX=0;entryY=0.5;entryDx=0;entryDy=0;" edge="1" parent="1" source="DaeVsZV7c522DMW-jx14-19" target="DaeVsZV7c522DMW-jx14-11">
          <mxGeometry width="160" relative="1" as="geometry">
            <mxPoint x="330" y="360" as="sourcePoint" />
            <mxPoint x="490" y="360" as="targetPoint" />
          </mxGeometry>
        </mxCell>
        <mxCell id="DaeVsZV7c522DMW-jx14-23" value="&amp;lt;&amp;lt;include&amp;gt;&amp;gt;" style="html=1;verticalAlign=bottom;labelBackgroundColor=none;endArrow=open;endFill=0;dashed=1;rounded=0;exitX=1;exitY=0.5;exitDx=0;exitDy=0;entryX=0;entryY=0.5;entryDx=0;entryDy=0;" edge="1" parent="1" source="DaeVsZV7c522DMW-jx14-7" target="DaeVsZV7c522DMW-jx14-10">
          <mxGeometry width="160" relative="1" as="geometry">
            <mxPoint x="330" y="360" as="sourcePoint" />
            <mxPoint x="490" y="360" as="targetPoint" />
          </mxGeometry>
        </mxCell>
        <mxCell id="DaeVsZV7c522DMW-jx14-24" value="&amp;lt;&amp;lt;extend&amp;gt;&amp;gt;" style="html=1;verticalAlign=bottom;labelBackgroundColor=none;endArrow=open;endFill=0;dashed=1;rounded=0;entryX=1;entryY=0.5;entryDx=0;entryDy=0;exitX=0;exitY=0.5;exitDx=0;exitDy=0;" edge="1" parent="1" source="DaeVsZV7c522DMW-jx14-16" target="DaeVsZV7c522DMW-jx14-6">
          <mxGeometry x="-0.1401" y="-10" width="160" relative="1" as="geometry">
            <mxPoint x="330" y="560" as="sourcePoint" />
            <mxPoint x="490" y="560" as="targetPoint" />
            <mxPoint as="offset" />
          </mxGeometry>
        </mxCell>
        <mxCell id="DaeVsZV7c522DMW-jx14-25" value="&amp;lt;&amp;lt;extend&amp;gt;&amp;gt;" style="html=1;verticalAlign=bottom;labelBackgroundColor=none;endArrow=open;endFill=0;dashed=1;rounded=0;entryX=1;entryY=0.5;entryDx=0;entryDy=0;exitX=0;exitY=0.5;exitDx=0;exitDy=0;" edge="1" parent="1" source="DaeVsZV7c522DMW-jx14-16" target="DaeVsZV7c522DMW-jx14-8">
          <mxGeometry width="160" relative="1" as="geometry">
            <mxPoint x="330" y="360" as="sourcePoint" />
            <mxPoint x="490" y="360" as="targetPoint" />
          </mxGeometry>
        </mxCell>
        <mxCell id="DaeVsZV7c522DMW-jx14-26" value="&amp;lt;&amp;lt;extend&amp;gt;&amp;gt;" style="html=1;verticalAlign=bottom;labelBackgroundColor=none;endArrow=open;endFill=0;dashed=1;rounded=0;exitX=0;exitY=0.5;exitDx=0;exitDy=0;entryX=1;entryY=0.5;entryDx=0;entryDy=0;" edge="1" parent="1" source="DaeVsZV7c522DMW-jx14-16" target="DaeVsZV7c522DMW-jx14-15">
          <mxGeometry x="-0.2125" y="-18" width="160" relative="1" as="geometry">
            <mxPoint x="330" y="360" as="sourcePoint" />
            <mxPoint x="490" y="360" as="targetPoint" />
            <mxPoint as="offset" />
          </mxGeometry>
        </mxCell>
        <mxCell id="DaeVsZV7c522DMW-jx14-27" value="" style="endArrow=none;html=1;rounded=0;exitX=1;exitY=0.3333333333333333;exitDx=0;exitDy=0;exitPerimeter=0;entryX=0;entryY=0.5;entryDx=0;entryDy=0;" edge="1" parent="1" source="DaeVsZV7c522DMW-jx14-1" target="DaeVsZV7c522DMW-jx14-19">
          <mxGeometry width="50" height="50" relative="1" as="geometry">
            <mxPoint x="390" y="390" as="sourcePoint" />
            <mxPoint x="440" y="340" as="targetPoint" />
          </mxGeometry>
        </mxCell>
        <mxCell id="DaeVsZV7c522DMW-jx14-28" value="" style="endArrow=none;html=1;rounded=0;exitX=1;exitY=0.3333333333333333;exitDx=0;exitDy=0;exitPerimeter=0;entryX=0;entryY=0.5;entryDx=0;entryDy=0;" edge="1" parent="1" source="DaeVsZV7c522DMW-jx14-1" target="DaeVsZV7c522DMW-jx14-7">
          <mxGeometry width="50" height="50" relative="1" as="geometry">
            <mxPoint x="390" y="390" as="sourcePoint" />
            <mxPoint x="440" y="340" as="targetPoint" />
          </mxGeometry>
        </mxCell>
        <mxCell id="DaeVsZV7c522DMW-jx14-29" value="" style="endArrow=none;html=1;rounded=0;exitX=1;exitY=0.3333333333333333;exitDx=0;exitDy=0;exitPerimeter=0;entryX=0;entryY=0.5;entryDx=0;entryDy=0;" edge="1" parent="1" source="DaeVsZV7c522DMW-jx14-1" target="DaeVsZV7c522DMW-jx14-6">
          <mxGeometry width="50" height="50" relative="1" as="geometry">
            <mxPoint x="390" y="390" as="sourcePoint" />
            <mxPoint x="440" y="340" as="targetPoint" />
          </mxGeometry>
        </mxCell>
        <mxCell id="DaeVsZV7c522DMW-jx14-30" value="" style="endArrow=none;html=1;rounded=0;exitX=1;exitY=0.3333333333333333;exitDx=0;exitDy=0;exitPerimeter=0;entryX=0;entryY=0.5;entryDx=0;entryDy=0;" edge="1" parent="1" source="DaeVsZV7c522DMW-jx14-1" target="DaeVsZV7c522DMW-jx14-8">
          <mxGeometry width="50" height="50" relative="1" as="geometry">
            <mxPoint x="390" y="390" as="sourcePoint" />
            <mxPoint x="440" y="340" as="targetPoint" />
          </mxGeometry>
        </mxCell>
        <mxCell id="DaeVsZV7c522DMW-jx14-31" value="" style="endArrow=none;html=1;rounded=0;exitX=1;exitY=0.3333333333333333;exitDx=0;exitDy=0;exitPerimeter=0;entryX=0;entryY=0.5;entryDx=0;entryDy=0;" edge="1" parent="1" source="DaeVsZV7c522DMW-jx14-1" target="DaeVsZV7c522DMW-jx14-9">
          <mxGeometry width="50" height="50" relative="1" as="geometry">
            <mxPoint x="390" y="590" as="sourcePoint" />
            <mxPoint x="440" y="540" as="targetPoint" />
          </mxGeometry>
        </mxCell>
        <mxCell id="DaeVsZV7c522DMW-jx14-32" value="" style="endArrow=none;html=1;rounded=0;exitX=1;exitY=0.3333333333333333;exitDx=0;exitDy=0;exitPerimeter=0;entryX=0;entryY=0.5;entryDx=0;entryDy=0;" edge="1" parent="1" source="DaeVsZV7c522DMW-jx14-1" target="DaeVsZV7c522DMW-jx14-15">
          <mxGeometry width="50" height="50" relative="1" as="geometry">
            <mxPoint x="390" y="590" as="sourcePoint" />
            <mxPoint x="440" y="540" as="targetPoint" />
          </mxGeometry>
        </mxCell>
        <mxCell id="DaeVsZV7c522DMW-jx14-33" value="" style="endArrow=none;html=1;rounded=0;entryX=0;entryY=0.3333333333333333;entryDx=0;entryDy=0;entryPerimeter=0;exitX=1;exitY=0.5;exitDx=0;exitDy=0;" edge="1" parent="1" source="DaeVsZV7c522DMW-jx14-11" target="DaeVsZV7c522DMW-jx14-2">
          <mxGeometry width="50" height="50" relative="1" as="geometry">
            <mxPoint x="390" y="390" as="sourcePoint" />
            <mxPoint x="440" y="340" as="targetPoint" />
          </mxGeometry>
        </mxCell>
        <mxCell id="DaeVsZV7c522DMW-jx14-34" value="" style="endArrow=none;html=1;rounded=0;entryX=0;entryY=0.3333333333333333;entryDx=0;entryDy=0;entryPerimeter=0;exitX=1;exitY=0.5;exitDx=0;exitDy=0;" edge="1" parent="1" source="DaeVsZV7c522DMW-jx14-10" target="DaeVsZV7c522DMW-jx14-2">
          <mxGeometry width="50" height="50" relative="1" as="geometry">
            <mxPoint x="390" y="390" as="sourcePoint" />
            <mxPoint x="440" y="340" as="targetPoint" />
          </mxGeometry>
        </mxCell>
        <mxCell id="DaeVsZV7c522DMW-jx14-35" value="" style="endArrow=none;html=1;rounded=0;entryX=0;entryY=0.3333333333333333;entryDx=0;entryDy=0;entryPerimeter=0;exitX=1;exitY=0.5;exitDx=0;exitDy=0;" edge="1" parent="1" source="DaeVsZV7c522DMW-jx14-12" target="DaeVsZV7c522DMW-jx14-2">
          <mxGeometry width="50" height="50" relative="1" as="geometry">
            <mxPoint x="390" y="390" as="sourcePoint" />
            <mxPoint x="440" y="340" as="targetPoint" />
          </mxGeometry>
        </mxCell>
        <mxCell id="DaeVsZV7c522DMW-jx14-36" value="" style="endArrow=none;html=1;rounded=0;entryX=0;entryY=0.3333333333333333;entryDx=0;entryDy=0;entryPerimeter=0;exitX=1;exitY=0.5;exitDx=0;exitDy=0;" edge="1" parent="1" source="DaeVsZV7c522DMW-jx14-16" target="DaeVsZV7c522DMW-jx14-2">
          <mxGeometry width="50" height="50" relative="1" as="geometry">
            <mxPoint x="390" y="390" as="sourcePoint" />
            <mxPoint x="440" y="340" as="targetPoint" />
          </mxGeometry>
        </mxCell>
        <mxCell id="DaeVsZV7c522DMW-jx14-37" value="" style="endArrow=none;html=1;rounded=0;entryX=0;entryY=0.3333333333333333;entryDx=0;entryDy=0;entryPerimeter=0;exitX=1;exitY=0.594;exitDx=0;exitDy=0;exitPerimeter=0;" edge="1" parent="1" source="DaeVsZV7c522DMW-jx14-13" target="DaeVsZV7c522DMW-jx14-3">
          <mxGeometry width="50" height="50" relative="1" as="geometry">
            <mxPoint x="390" y="690" as="sourcePoint" />
            <mxPoint x="440" y="640" as="targetPoint" />
          </mxGeometry>
        </mxCell>
        <mxCell id="DaeVsZV7c522DMW-jx14-38" value="" style="endArrow=none;html=1;rounded=0;entryX=0;entryY=0.3333333333333333;entryDx=0;entryDy=0;entryPerimeter=0;exitX=1;exitY=0.5;exitDx=0;exitDy=0;" edge="1" parent="1" source="DaeVsZV7c522DMW-jx14-14" target="DaeVsZV7c522DMW-jx14-3">
          <mxGeometry width="50" height="50" relative="1" as="geometry">
            <mxPoint x="390" y="690" as="sourcePoint" />
            <mxPoint x="440" y="640" as="targetPoint" />
          </mxGeometry>
        </mxCell>
      </root>
    </mxGraphModel>
  </diagram>
</mxfile>
